<?xml version="1.0" encoding="UTF-8" standalone="no"?>
<svg
   aria-hidden="true"
   role="img"
   class="iconify iconify--fa-solid"
   width="36"
   height="32"
   preserveAspectRatio="xMidYMid meet"
   viewBox="0 0 576 512"
   version="1.1"
   id="svg4"
   sodipodi:docname="FaSolidBookOpen.svg"
   inkscape:version="1.1.1 (3bf5ae0d25, 2021-09-20)"
   xmlns:inkscape="http://www.inkscape.org/namespaces/inkscape"
   xmlns:sodipodi="http://sodipodi.sourceforge.net/DTD/sodipodi-0.dtd"
   xmlns="http://www.w3.org/2000/svg"
   xmlns:svg="http://www.w3.org/2000/svg">
  <defs
     id="defs8" />
  <sodipodi:namedview
     id="namedview6"
     pagecolor="#ffffff"
     bordercolor="#666666"
     borderopacity="1.0"
     inkscape:pageshadow="2"
     inkscape:pageopacity="0.0"
     inkscape:pagecheckerboard="0"
     showgrid="false"
     inkscape:zoom="8.84375"
     inkscape:cx="20.353357"
     inkscape:cy="22.558304"
     inkscape:window-width="1330"
     inkscape:window-height="743"
     inkscape:window-x="36"
     inkscape:window-y="0"
     inkscape:window-maximized="1"
     inkscape:current-layer="svg4" />
  <rect
     style="fill:none;stroke-width:450.829"
     id="rect965"
     width="615.12372"
     height="615.12372"
     x="-37.236164"
     y="-41.01339"
     inkscape:export-filename="/home/zen/addons/get-ayat/bahan/icon.png"
     inkscape:export-xdpi="319.6235"
     inkscape:export-ydpi="319.6235" />
  <path
     fill="currentColor"
     d="m 524.55069,42.601683 c -54.8,3.11 -163.72,14.43 -230.96,55.589997 -4.64,2.84 -7.27,7.89 -7.27,13.17 v 363.87 c 0,11.55 12.63,18.85 23.28,13.49 69.18,-34.82 169.23,-44.32 218.7,-46.92 16.89,-0.89 30.02,-14.43 30.02,-30.66 V 73.301683 c 0.01,-17.71 -15.35,-31.74 -33.77,-30.7 z m -277.49,55.589997 C 179.83069,57.031683 70.910693,45.721683 16.110693,42.601683 c -18.4200004,-1.04 -33.780001,12.99 -33.780001,30.7 V 411.15168 c 0,16.24 13.1300006,29.78 30.020001,30.66 49.49,2.6 149.589997,12.11 218.769997,46.95 10.62,5.35 23.21,-1.94 23.21,-13.46 v -364.12 c 0,-5.29 -2.62,-10.14 -7.27,-12.99 z"
     id="path2"
     inkscape:export-filename="/home/zen/addons/get-ayat/bahan/icon.png"
     inkscape:export-xdpi="319.6235"
     inkscape:export-ydpi="319.6235" />
</svg>
