<?xml version="1.0" encoding="UTF-8" standalone="no"?>
<svg
   aria-hidden="true"
   role="img"
   class="iconify iconify--subway"
   width="32"
   height="32"
   preserveAspectRatio="xMidYMid meet"
   viewBox="0 0 512 512"
   version="1.1"
   id="svg4"
   sodipodi:docname="SubwaySearch.svg"
   inkscape:version="1.1.1 (3bf5ae0d25, 2021-09-20)"
   xmlns:inkscape="http://www.inkscape.org/namespaces/inkscape"
   xmlns:sodipodi="http://sodipodi.sourceforge.net/DTD/sodipodi-0.dtd"
   xmlns="http://www.w3.org/2000/svg"
   xmlns:svg="http://www.w3.org/2000/svg">
  <defs
     id="defs8" />
  <sodipodi:namedview
     id="namedview6"
     pagecolor="#ffffff"
     bordercolor="#666666"
     borderopacity="1.0"
     inkscape:pageshadow="2"
     inkscape:pageopacity="0.0"
     inkscape:pagecheckerboard="0"
     showgrid="false"
     inkscape:zoom="9.6070316"
     inkscape:cx="15.87379"
     inkscape:cy="17.747417"
     inkscape:window-width="1330"
     inkscape:window-height="743"
     inkscape:window-x="36"
     inkscape:window-y="0"
     inkscape:window-maximized="1"
     inkscape:current-layer="svg4" />
  <path
     fill="currentColor"
     d="M325.8 0C223 0 139.6 83.4 139.6 186.2c0 33.5 9 64.8 24.4 92L0 442.2l23.3 46.5L69.8 512l164-164c27.1 15.5 58.5 24.4 92 24.4C428.6 372.4 512 289 512 186.2S428.6 0 325.8 0zm0 314.2c-70.7 0-128-57.3-128-128s57.3-128 128-128s128 57.3 128 128s-57.3 128-128 128z"
     id="path2"
     inkscape:export-filename="/home/zen/addons/get-ayat/bahan/icon.png"
     inkscape:export-xdpi="384"
     inkscape:export-ydpi="384" />
</svg>
